<svg xmlns="http://www.w3.org/2000/svg" viewBox="0 0 172 172">
  <g fill="none" stroke-linecap="round" stroke-linejoin="round">
    <path d="M0 172V0h172v172z"/>
    <path fill="#000" stroke="#000" stroke-width="12" d="M71.66667 21.5c-27.6535 0-50.16667 22.51317-50.16667 50.16667S44.01317 121.83333 71.66667 121.83333c11.3555 0 21.84983-3.78217 30.2375-10.16083l33.42083 33.42083c1.6125 1.6125 3.74917 2.41917 5.88583 2.41917s4.27333-.80667 5.88583-2.41917c3.225-3.225 3.225-8.54667 0-11.77167L113.67583 99.89083c6.37867-8.38767 10.16084-18.88483 10.16084-30.22416 0-27.6535-22.51317-50.16667-50.16667-50.16667zm0 17.2c18.37017 0 32.96667 14.5965 32.96667 32.96667S90.03683 104.63333 71.66667 104.63333 38.7 90.03683 38.7 71.66667 53.2965 38.7 71.66667 38.7z"/>
  </g>
</svg>

