<svg width="200" height="200" viewBox="0 0 200 200" xmlns="http://www.w3.org/2000/svg">
  <g fill="#D62828">
    <!-- 垂直齿 -->
    <rect x="92" y="4" width="16" height="44" rx="8" />
    <rect x="92" y="152" width="16" height="44" rx="8" />
    <!-- 水平齿 -->
    <rect x="4" y="92" width="44" height="16" rx="8" />
    <rect x="152" y="92" width="44" height="16" rx="8" />
    <!-- 斜向齿 -->
    <rect x="92" y="12" width="16" height="44" rx="8" transform="rotate(45 100 100)" />
    <rect x="92" y="12" width="16" height="44" rx="8" transform="rotate(135 100 100)" />
    <rect x="92" y="12" width="16" height="44" rx="8" transform="rotate(225 100 100)" />
    <rect x="92" y="12" width="16" height="44" rx="8" transform="rotate(315 100 100)" />
    <!-- 齿轮主体 -->
    <circle cx="100" cy="100" r="68" />
  </g>
  <!-- 中心孔 -->
  <circle cx="100" cy="100" r="26" fill="#ffffff" />
</svg>

